<svg xmlns="http://www.w3.org/2000/svg" viewBox="0 0 500 400" role="img" aria-label="Class 3 — Healthy Plate colouring picture"><rect width="500" height="400" fill="#fff"/><g stroke="#111" stroke-width="7" stroke-linecap="round" stroke-linejoin="round" ><circle cx="250" cy="220" r="125" fill="#fff" stroke="#111" stroke-width="7"/><path d="M250 95 A125 125 0 0 0 250 345Z" fill="#f5d46c"/><path d="M250 95 A125 125 0 0 1 375 220 H250Z" fill="#7bc67b"/><path d="M250 220 H375 A125 125 0 0 1 250 345Z" fill="#f28c65"/><path d="M250 95 V345 M250 220 H375" stroke="#111" stroke-width="5"/><circle cx="205" cy="185" r="20" fill="#d95d55"/><path d="M195 162 Q205 145 220 155" stroke="#111" stroke-width="4" fill="none"/><path d="M290 155 Q315 135 330 165 Q315 195 290 185Z" fill="#4f9b5c"/><path d="M285 260 Q310 245 330 270 Q310 300 285 285Z" fill="#f5d46c"/></g></svg>